<?xml version="1.0" encoding="utf-8"?>
<svg width="2981px" height="1597px" viewBox="0 0 2981 1597" version="1.1" xmlns:xlink="http://www.w3.org/1999/xlink" xmlns="http://www.w3.org/2000/svg">
  <g id="fore">
    <g id="AR" fill="#CA8A0C" transform="translate(850 388.9248)">
      <path d="M219.874 779.781L307.765 955.563L813.136 955.563L813.136 779.781L1076.81 1043.45L1296.53 1043.45L1032.86 779.781Q1208.64 779.781 1208.64 560.055Q1208.64 340.328 988.917 340.328L637.355 340.328L637.355 516.109L988.917 516.109Q1032.86 516.109 1032.86 560.055Q1032.86 604 988.917 604L813.136 604L813.136 560.055L637.355 560.055L637.355 904.751L307.765 142.574L-43.7977 955.563L131.984 955.563L307.765 560.055L405.323 779.781L219.874 779.781Z" />
    </g>
    <path d="M475.366 4.00507C461.384 9.01343 445.316 16.8391 434.464 23.9345C418.604 34.3687 398.674 57.1154 396.275 67.4452C394.918 73.2885 395.231 82.0531 396.901 89.5659C398.883 98.1219 407.335 115.025 414.013 124.103C418.917 130.781 419.334 130.99 425.386 132.242C431.647 133.494 431.751 133.598 432.377 137.355C436.029 160.101 441.037 168.657 454.393 174.814C461.593 178.048 462.428 180.97 456.585 182.535C450.533 184.1 446.15 188.9 446.672 193.074L447.194 196.308L440.62 195.682C436.551 195.265 428.725 193.074 420.169 189.839C401.909 183.057 391.997 180.97 382.188 181.7C372.797 182.431 369.146 183.996 367.163 188.482L365.598 191.821L357.25 191.613L348.903 191.3L345.251 184.518C340.66 175.961 326.365 161.353 316.348 154.884C308.836 149.98 295.793 143.511 277.428 135.477C254.786 125.46 226.092 108.139 199.693 88.5224L183.938 76.836L182.686 69.2191C180.703 56.1763 174.964 47.9332 162.652 40.0032C158.895 37.6033 152.635 32.8036 148.566 29.3602C138.236 20.4911 125.506 11.4134 119.35 8.70048C116.428 7.34398 109.75 5.77884 104.011 5.04849C91.9077 3.48336 83.2472 4.6311 72.9173 9.22219C69.161 10.7873 63.9439 12.8742 61.231 13.9176C54.8661 16.1088 52.6749 18.8216 44.0145 34.9947C37.3365 47.3072 36.5018 48.4549 29.6152 53.5677C25.6502 56.4892 20.0157 59.8283 17.3028 60.7674C14.4855 61.8108 11.9813 63.2715 11.6683 64.1063C11.3553 64.9411 8.64237 66.2975 5.5121 67.2366C-0.435424 68.906 -1.37451 70.3668 1.75577 73.184C3.11222 74.4362 5.61644 74.9579 9.89448 74.9579C15.529 74.9579 16.7811 74.5405 23.146 70.2625C27.0066 67.654 30.1369 65.7757 30.1369 66.0888C30.1369 66.4018 29.4065 68.1757 28.4674 69.9494C27.3197 72.1406 27.0066 74.4362 27.5284 77.4622C29.5109 90.505 29.4065 94.5742 26.5893 99.5827C23.459 105.217 23.2503 107.513 25.6502 109.913C28.0501 112.417 34.2063 111.06 37.1279 107.513C41.1972 102.609 42.7624 98.0176 43.8058 88.4181C44.7449 78.5056 46.2057 74.4362 50.4837 69.3234C52.5705 66.7149 53.1966 66.4018 54.553 67.5496C55.8052 68.5931 56.2225 70.8885 56.2225 76.1057L56.2225 83.201L63.6308 89.7745C73.0217 98.1219 80.2213 106.991 83.8733 114.504C85.9601 118.677 90.5512 123.999 99.942 133.39C114.446 147.789 124.462 155.093 136.149 159.684C142.514 162.084 146.896 165.11 161.295 177.005C191.659 201.838 224.423 226.567 252.908 246.184C261.986 252.444 263.968 254.218 263.551 255.992C263.238 257.14 259.482 271.956 255.204 288.86C240.074 348.022 236.944 368.786 233.5 432.331C232.04 459.564 232.874 507.353 235.065 527.804C240.074 573.61 250.091 627.66 258.751 655.519C261.882 665.745 261.882 665.745 264.073 663.867C267.725 660.528 275.133 648.32 278.472 640.181C282.437 630.268 285.254 618.478 287.55 601.887C289.741 585.923 290.054 533.647 288.071 506.414C287.028 491.284 285.672 444.017 284.524 381.516L284.211 366.073L293.184 354.909C303.931 341.448 313.948 326.945 320.731 315.154C323.444 310.459 325.948 306.598 326.261 306.598C326.469 306.598 329.808 309.415 333.669 312.754C339.304 317.763 341.495 320.684 344.938 327.675C350.364 338.527 358.607 351.257 364.972 358.769C368.311 362.63 371.024 367.43 373.319 373.273C383.336 399.15 395.44 425.027 407.544 446.104C411.196 452.573 418.395 468.12 423.508 480.641L432.794 503.492L432.273 514.344C431.751 522.796 432.064 526.865 433.525 532.5C434.986 538.238 435.403 544.29 435.403 561.194C435.507 580.497 435.716 583.001 437.699 587.279L439.785 591.975L435.82 597.192C422.986 613.782 415.265 641.642 413.074 679.518C411.3 711.864 414.848 734.089 425.699 757.044L429.768 765.601L429.768 783.86C429.768 814.537 432.481 845.318 437.699 875.264C440.098 889.142 440.307 892.794 440.203 918.984C440.098 943.609 441.455 965.103 442.916 963.642C443.124 963.434 443.855 957.173 444.376 949.765C446.046 928.375 445.629 889.872 443.437 860.657C442.081 842.397 441.768 833.632 442.498 832.693C444.272 830.606 448.446 831.232 449.594 833.736C450.115 835.093 451.054 849.701 451.576 866.395C452.411 888.203 453.246 900.202 454.811 909.176C457.211 923.366 459.715 932.653 460.967 932.653C462.428 932.653 467.227 922.845 468.062 917.941C468.793 913.767 468.897 914.184 469.523 923.262C469.94 928.688 470.253 937.14 470.358 941.939C470.462 948.93 470.879 951.435 472.653 954.252L474.949 957.904L469.001 963.851L462.949 969.903L465.245 985.45C473.592 1044.19 485.905 1095.95 503.121 1144.47C509.486 1162.31 520.859 1189.96 525.763 1199.87L528.998 1206.24L526.911 1212.6C520.233 1233.37 519.294 1252.67 524.198 1269.16L525.659 1274.37L548.615 1290.03C606.525 1329.47 619.776 1336.15 638.453 1335.21C652.018 1334.58 657.235 1330.61 658.8 1319.76C659.426 1315.17 659.322 1314.86 650.244 1302.34C645.236 1295.35 638.036 1284.08 634.28 1277.3C625.515 1261.44 611.324 1240.05 602.142 1228.78L594.943 1219.91L594.317 1204.36C593.795 1186.52 591.708 1177.44 585.343 1163.35C577.935 1147.29 567.709 1105.44 562.909 1071.43C558.631 1041.9 557.901 1031.15 557.379 993.171C557.066 965.103 556.649 957.069 555.606 956.86C553.623 956.443 551.849 949.974 551.119 941C550.493 931.714 552.893 923.992 558.527 917.419C563.849 911.158 565.518 906.985 566.457 897.802C567.501 886.116 569.692 881.525 577.309 874.43L583.882 868.482L583.048 838.223C582.63 821.632 582.317 807.859 582.422 807.755C582.526 807.651 585.656 808.277 589.308 809.111C592.96 809.946 598.803 810.572 602.351 810.363L608.716 810.05L611.116 805.355C612.785 801.912 613.411 798.886 613.411 793.356C613.516 774.887 619.88 765.705 632.715 765.705L638.871 765.705L645.236 759.131C649.305 754.958 652.853 749.845 655.461 744.732L659.322 736.698L667.356 734.924C671.843 733.88 679.043 732.42 683.321 731.689C692.19 730.02 724.014 728.455 724.014 729.707C724.014 730.124 719.84 734.82 714.728 740.245C705.024 750.367 698.972 758.192 691.564 770.4C689.164 774.47 684.051 781.461 680.19 786.052C669.756 798.573 662.139 809.529 656.609 820.276C645.653 841.771 630.732 854.709 610.281 860.552C606.003 861.804 599.951 863.578 596.925 864.413C593.899 865.248 589.725 867.439 587.743 869.213L584.091 872.447L584.3 882.047L584.404 891.751L576.37 901.141L568.335 910.637L574.283 921.593L580.23 932.653L585.656 932.027L591.082 931.401L595.986 937.14C600.786 942.774 600.89 943.087 600.89 949.765C600.89 953.626 601.412 961.243 602.038 966.877C606.316 1006.94 619.88 1036.06 646.383 1062.77C657.965 1074.45 658.07 1074.56 661.409 1073.41C666.522 1071.53 667.252 1068.72 665.269 1058.07C661.722 1039.4 660.157 1022.28 659.635 996.823L659.113 970.738L665.061 959.26C682.486 925.662 703.041 902.602 742.796 872.239C807.279 822.885 820.009 812.45 839.73 793.356C853.816 779.687 862.894 769.253 871.137 757.358L876.458 749.532L870.198 748.28C862.998 746.819 855.694 743.376 854.755 741.08C854.338 740.037 858.199 735.654 866.129 727.829C880.11 714.16 886.684 705.812 891.275 696.109C894.301 689.639 894.614 688.074 894.614 679.101C894.614 669.919 894.301 668.666 891.066 662.406C887.101 654.685 870.615 637.468 862.79 632.981C849.121 625.051 802.062 612.217 774.099 608.67C760.221 607 748.222 603.765 736.848 598.653C724.64 593.227 713.684 586.236 709.824 581.436C704.294 574.758 693.546 569.645 683.321 568.915C672.782 568.08 669.339 566.933 665.687 562.759C661.826 558.376 659.426 550.76 658.591 540.221C658.07 533.647 658.383 531.352 660.261 526.343C662.974 518.935 663.183 510.692 660.47 506.31C659.218 504.223 655.879 501.823 650.557 499.214C644.401 496.188 641.897 494.206 639.393 490.554C633.862 482.624 630.21 469.581 628.541 452.051L627.81 444.643L639.706 438.8C654.105 431.705 660.678 429.722 669.86 429.722C675.495 429.722 677.895 430.244 682.382 432.644C690.52 436.818 692.816 441.93 693.755 457.164C694.485 467.912 695.111 470.624 701.894 490.554C708.467 509.962 709.511 513.927 711.076 527.282L712.85 542.203L728.814 554.829C745.3 567.872 748.013 569.228 753.23 566.411C756.986 564.428 757.299 559.42 756.256 523.317L755.213 488.676L745.3 446.939C732.883 395.081 732.257 392.785 727.249 385.272C723.597 379.742 722.553 376.299 716.815 352.509L710.45 325.901L709.302 291.99C708.467 265.383 707.841 257.557 706.693 255.679C705.233 253.384 705.441 252.966 710.45 246.601C717.232 238.045 725.579 230.428 731.423 227.611C733.927 226.254 742.587 222.602 750.622 219.368C782.237 206.638 807.906 192.552 820.635 181.074C825.644 176.587 826.687 176.066 839.417 173.04C866.337 166.675 883.449 159.684 895.031 150.293C898.057 147.789 900.875 146.119 901.292 146.641C905.57 151.441 911.831 160.727 911.831 162.084C911.831 166.571 916.422 185.561 918.613 190.465C921.013 195.786 921.221 195.995 925.186 195.995C929.673 195.995 931.134 194.847 932.177 190.465C932.595 188.796 933.638 187.648 934.682 187.648C937.603 187.648 938.96 185.352 938.96 180.448C938.96 176.066 939.481 175.231 944.803 169.805C950.02 164.484 950.646 163.44 951.481 157.701C952.629 149.041 953.881 146.954 957.95 146.954C960.245 146.954 962.437 148.102 965.671 151.128C968.593 153.736 971.201 155.302 972.975 155.302C974.645 155.302 977.775 157.075 981.531 160.414C988.731 166.571 993.739 167.927 997.496 164.692L1000 162.606L994.783 157.701C991.966 154.884 987.688 150.085 985.288 146.85C982.888 143.72 978.818 139.65 976.106 137.876C969.323 133.285 963.376 127.755 961.498 124.103C959.515 120.451 954.507 116.382 948.977 114.086C946.785 113.147 940.525 108.556 934.995 103.965C924.456 94.9916 910.892 85.7051 907.135 84.7662C905.57 84.3488 904.318 82.7836 903.483 80.1751C902.127 76.21 902.127 76.1057 895.344 75.3753C884.806 74.2275 866.337 75.584 857.781 77.9839C853.608 79.2359 837.852 86.3313 822.826 93.9482C806.236 102.191 776.707 115.547 747.491 127.859L699.494 147.998L688.016 159.788C681.755 166.258 671.321 175.544 665.061 180.448L653.479 189.317L603.499 186.396C576.057 184.83 553.414 183.265 553.101 183.057C551.64 181.492 554.979 180.344 560.823 180.344C565.622 180.344 568.857 179.718 571.883 178.153C581.691 173.144 583.361 167.405 577.83 157.597C574.7 151.963 574.596 151.754 574.7 137.146C574.7 124.416 574.387 121.808 572.509 117.947C571.361 115.443 570.526 113.356 570.735 113.252C574.596 111.165 575.326 110.434 575.639 108.556C575.848 106.991 574.387 104.696 570.839 101.252C564.579 95.2004 562.701 91.757 560.301 81.9488C558.736 75.2709 558.631 72.1406 559.466 54.4024L560.51 34.2644L557.588 30.0907C553.414 24.0388 542.563 14.2306 536.093 10.4742C528.268 6.09192 519.086 3.17028 507.191 1.39651C492.061 -0.899102 488.096 -0.586024 475.366 4.00507L475.366 4.00507Z" id="efe" fill="#CA8A0C" fill-rule="evenodd" stroke="none" />
    <g id="mic" transform="translate(2080.764 542.97363)">
      <path d="M0 335.599C20.4566 347.905 43.1953 356.124 67.0643 359.605L67.0643 0C43.1935 3.48093 20.4549 11.6963 0 24.0008L0 335.599Z" transform="translate(624.96484 0.0014648438)" id="Shape" fill="#CA8A0C" fill-rule="evenodd" stroke="none" />
      <path d="M2.68257e-05 26.3707L2.68257e-05 224.093C2.68257e-05 238.657 11.8071 250.464 26.3707 250.464L112.984 250.464L112.984 139.355C112.984 124.791 124.791 112.984 139.355 112.984L344.378 112.984C358.942 112.984 370.749 124.791 370.749 139.355L370.749 250.464L430.992 250.464L430.992 0L26.3707 0C11.807 0 0 11.807 0 26.3707L2.68257e-05 26.3707Z" transform="translate(141.23047 54.57129)" id="Shape" fill="#CA8A0C" fill-rule="evenodd" stroke="none" />
      <path d="M125.911 112.984C140.475 112.984 152.282 101.177 152.282 86.6137L152.282 0L0 0L0 86.6137C0 101.177 11.807 112.984 26.3707 112.984L125.911 112.984Z" transform="translate(306.95703 220.29736)" id="Shape" fill="#CA8A0C" fill-rule="evenodd" stroke="none" />
      <path d="M0 69.4182C4.56565 179.373 161.201 179.289 165.726 69.4182L165.726 0L0 0L0 69.4182Z" transform="translate(300.2422 386.02295)" id="Shape" fill="#CA8A0C" fill-rule="evenodd" stroke="none" />
      <path d="M0 0L0 359.607C206.061 324.736 205.911 34.7917 0 0L0 0Z" transform="translate(744.7715 0)" id="Shape" fill="#CA8A0C" fill-rule="evenodd" stroke="none" />
      <path d="M1.88618e-06 26.3707L1.88618e-06 167.6C1.88618e-06 182.163 11.807 193.97 26.3707 193.97L88.4878 193.97L88.4878 0L26.3707 0C11.807 0 0 11.807 0 26.3707L1.88618e-06 26.3707Z" transform="translate(0 82.81787)" id="Shape" fill="#CA8A0C" fill-rule="evenodd" stroke="none" />
      <path d="M0 0L0 311.079C0 325.643 11.8071 337.45 26.3707 337.45L139.355 337.45C153.919 337.45 165.726 325.643 165.726 311.079L165.726 0.00177049C119.442 37.5167 46.2736 37.5079 0 0L0 0Z" transform="translate(300.2422 562.66943)" id="Shape" fill="#CA8A0C" fill-rule="evenodd" stroke="none" />
    </g>
  </g>
</svg>